<svg width="96" height="96" xmlns="http://www.w3.org/2000/svg" xmlns:xlink="http://www.w3.org/1999/xlink" xml:space="preserve" overflow="hidden"><defs><clipPath id="clip0"><rect x="448" y="500" width="96" height="96"/></clipPath></defs><g clip-path="url(#clip0)" transform="translate(-448 -500)"><path d="M481 530.8C481 535.771 476.971 539.8 472 539.8 467.029 539.8 463 535.771 463 530.8 463 525.829 467.029 521.8 472 521.8 476.971 521.8 481 525.829 481 530.8Z"/><path d="M529 530.8C529 535.771 524.971 539.8 520 539.8 515.029 539.8 511 535.771 511 530.8 511 525.829 515.029 521.8 520 521.8 524.971 521.8 529 525.829 529 530.8Z"/><path d="M514 574.2 514 565.2C514 563.8 513.4 562.4 512.2 561.6 509.8 559.6 506.6 558.2 503.4 557.4 501.2 556.8 498.6 556.2 496 556.2 493.6 556.2 491 556.6 488.6 557.4 485.4 558.2 482.4 559.8 479.8 561.6 478.6 562.6 478 563.8 478 565.2L478 574.2 514 574.2Z"/><path d="M505 544.8C505 549.771 500.971 553.8 496 553.8 491.029 553.8 487 549.771 487 544.8 487 539.829 491.029 535.8 496 535.8 500.971 535.8 505 539.829 505 544.8Z"/><path d="M536.2 547.6C533.8 545.6 530.6 544.2 527.4 543.4 525.2 542.8 522.6 542.2 520 542.2 517.6 542.2 515 542.6 512.6 543.4 511.4 543.8 510.2 544.2 509 544.8L509 545C509 548.4 507.6 551.6 505.4 553.8 509.2 555 512.2 556.6 514.6 558.4 515.2 559 515.8 559.4 516.2 560.2L538 560.2 538 551.2C538 549.8 537.4 548.4 536.2 547.6Z"/><path d="M477.4 558.4 477.4 558.4C480.2 556.4 483.4 554.8 486.6 553.8 484.4 551.4 483 548.4 483 545 483 544.8 483 544.8 483 544.6 481.8 544.2 480.6 543.6 479.4 543.4 477.2 542.8 474.6 542.2 472 542.2 469.6 542.2 467 542.6 464.6 543.4 461.4 544.4 458.4 545.8 455.8 547.6 454.6 548.4 454 549.8 454 551.2L454 560.2 475.6 560.2C476.2 559.4 476.6 559 477.4 558.4Z"/></g></svg>