<svg width="96" height="96" xmlns="http://www.w3.org/2000/svg" xmlns:xlink="http://www.w3.org/1999/xlink" xml:space="preserve" overflow="hidden"><defs><clipPath id="clip0"><rect x="0" y="0" width="96" height="96"/></clipPath></defs><g clip-path="url(#clip0)"><path d="M34.3 55 38.91 47C37.7107 46.4067 36.5749 45.6931 35.52 44.87L30.52 53.54C31.8368 53.8645 33.107 54.3551 34.3 55Z"/><path d="M53.21 72C53.0743 71.1735 53.0041 70.3376 53 69.5 53.0012 68.999 53.0279 68.4983 53.08 68L42.92 68C42.9721 68.4983 42.9988 68.999 43 69.5 42.9959 70.3376 42.9257 71.1735 42.79 72Z"/><path d="M61 55.41C62.1468 54.7052 63.3761 54.1444 64.66 53.74L59.53 44.85C58.4602 45.6829 57.3075 46.4034 56.09 47Z"/><path d="M26.5 57C19.5964 57 14 62.5964 14 69.5 14 76.4036 19.5964 82 26.5 82 33.4036 82 39 76.4036 39 69.5 39 62.5964 33.4036 57 26.5 57ZM26.5 61.87C28.4385 61.8645 30.0145 63.4315 30.02 65.37 30.0255 67.3085 28.4585 68.8845 26.52 68.89 24.5815 68.8955 23.0055 67.3285 23 65.39 23 65.3833 23 65.3767 23 65.37 23.0055 63.4393 24.5693 61.8755 26.5 61.87ZM33.5 75.93 19.5 75.93 19.5 73.26C19.5133 72.7124 19.7699 72.1992 20.2 71.86 21.2378 71.1146 22.3941 70.55 23.62 70.19 24.5598 69.9169 25.5315 69.769 26.51 69.75 27.4896 69.756 28.463 69.9042 29.4 70.19 30.6403 70.5121 31.8033 71.08 32.82 71.86 33.2501 72.1992 33.5067 72.7124 33.52 73.26Z"/><path d="M63 29.5C63 20.9396 56.0604 14 47.5 14 38.9396 14 32 20.9396 32 29.5 32 38.0604 38.9396 45 47.5 45 56.0604 45 63 38.0604 63 29.5ZM47.47 20C49.8724 20 51.82 21.9476 51.82 24.35 51.82 26.7524 49.8724 28.7 47.47 28.7 45.0676 28.7 43.12 26.7524 43.12 24.35 43.1255 21.9498 45.0698 20.0055 47.47 20ZM56.15 37.44 38.78 37.44 38.78 34.1C38.7928 33.4185 39.1124 32.7791 39.65 32.36 40.9313 31.4356 42.3622 30.7387 43.88 30.3 45.0469 29.9594 46.2545 29.7778 47.47 29.76 48.6835 29.762 49.8899 29.944 51.05 30.3 52.5856 30.6996 54.0268 31.3998 55.29 32.36 55.8216 32.7829 56.1368 33.4208 56.15 34.1Z"/><path d="M69.5 57C62.5964 57 57 62.5964 57 69.5 57 76.4036 62.5964 82 69.5 82 76.4036 82 82 76.4036 82 69.5 82 62.5964 76.4036 57 69.5 57ZM69.5 61.87C71.4385 61.8645 73.0145 63.4315 73.02 65.37 73.0255 67.3085 71.4585 68.8845 69.52 68.89 67.5815 68.8955 66.0055 67.3285 66 65.39 66 65.3833 66 65.3767 66 65.37 66.0055 63.4393 67.5693 61.8755 69.5 61.87ZM76.5 75.93 62.5 75.93 62.5 73.26C62.5133 72.7124 62.7699 72.1992 63.2 71.86 64.2378 71.1146 65.3941 70.55 66.62 70.19 67.5598 69.9169 68.5315 69.769 69.51 69.75 70.4896 69.756 71.463 69.9042 72.4 70.19 73.6403 70.5121 74.8033 71.08 75.82 71.86 76.2501 72.1992 76.5067 72.7124 76.52 73.26Z"/></g></svg>